<svg viewBox="0 0 420 420" xmlns="http://www.w3.org/2000/svg" xmlns:svg="http://www.w3.org/2000/svg" version="1.0">
    <circle fill="#FFFFFF" cx="210" cy="210" r="210"/>
    <circle fill="#CC0000" cx="210" cy="210" r="190"/>
    <circle fill="#FFFFFF" cx="210" cy="210" r="160"/>
    <path fill="#CC0000" d="m202.82,68.08c-9.56,0.1 -15.08,1.07 -19.89,8.73l0,98.69c0,0 0.35,11.17 -13.59,11.17c-13.95,0 -64.52,0 -64.52,0c0,0 -10.11,1.05 -10.11,10.11c0,9.07 0,75.33 0,75.33c0,0 -2.79,6.97 26.5,6.97c29.29,0 30.69,-6.28 30.69,-6.28l0,-63.14c0,0 -0.09,-7.99 13.85,-7.99c18.58,0 17.17,5.57 17.17,7.3c0,1.75 0,105.67 0,105.67c0,0 -0.59,7.27 27.07,7.27c27.66,0 27.07,-7.27 27.07,-7.27c0,0 0,-103.92 0,-105.67c0,-1.74 -1.4,-7.3 17.18,-7.3c13.94,0 13.87,7.99 13.87,7.99l0,63.14c0,0 1.39,6.28 30.68,6.28c29.29,0 26.5,-6.97 26.5,-6.97c0,0 0,-66.27 0,-75.33c0,-9.07 -10.11,-10.11 -10.11,-10.11c0,0 -50.55,0 -64.5,0c-13.95,0 -13.61,-11.17 -13.61,-11.17l0,-98.69c-5.89,-9.36 -12.83,-8.74 -26.95,-8.73c-0.09,0 -0.16,0 -0.24,0c-2.58,0 -4.92,-0.02 -7.06,0z"/>
</svg>
